<svg xmlns="http://www.w3.org/2000/svg" xmlns:xlink="http://www.w3.org/1999/xlink" viewBox="0 0 91 101" fill="#fff" fill-rule="evenodd" stroke="#000" stroke-linecap="round" stroke-linejoin="round"><style><![CDATA[.B{stroke:none}.C{fill:#263238}.D{font-weight:bold}.E{fill:#303030}.F{fill-opacity:.5}.G{fill:#605343}.H{fill:#ffe06a}]]></style><use xlink:href="#A" x=".5" y=".5"/><symbol id="A" overflow="visible"><path d="M36.005 63.558C16.114 71.339 10.147 75.486 7.789 77.351 4.156 80.22 2.145 90.921 0 100h90c-2.145-9.096-4.17-19.78-7.788-22.649-2.359-1.865-8.103-5.904-27.994-13.686z" fill="#464646" class="B"/><g class="B"><path d="M35.347 56.927c-3.036-2.226-5.705-4.773-6.723-6.392-.472-.751-1.504-3.706-2.366-7.748-1.1-.699-2.129-2.1-2.72-3.878-.971-2.922-.379-5.721 1.328-6.278l.056-.017c-.538-11.972 2.892-25.472 20.086-25.472 17.212 0 20.637 13.516 20.093 25.494 1.659.603 2.225 3.371 1.265 6.257-.566 1.701-1.533 3.058-2.58 3.784-.869 4.098-1.917 7.1-2.395 7.858-1.019 1.62-3.69 4.168-6.727 6.395v11.243c-5.314 6.424-14.006 6.217-19.316 0z" fill="#f6c5a0"/><path d="M58.346 8.083C48.31.283 32.817 4.927 28.137 11.442c-5.857 8.154-3.786 20.538-2.4 29.825v-.041c0 .092.037.188.06.289.064.121.137.238.218.349.179.048.37.025.533-.064.042-.027.067-.074.065-.124.056-.821 0-2.45 0-2.469-.111-1.28-.389-2.514-.579-3.763.927-5.864.966-8.694 5.175-14.174.306-.459.639-.918.982-1.377a11.29 11.29 0 0 1 1.302-1.445c.253-.153.272-.268.507-.449 4.5-.5 3-.5 10-.5 2.5 0 6.5 0 10 1 3 .5 7.366 2.824 7.5 2 2.442 7.236 3 8 2.42 15.94-.162.918-.338 1.835-.417 2.79 0 0-.051 1.647 0 2.469-.002.05.023.097.065.124.162.089.353.112.533.064a2.83 2.83 0 0 0 .218-.349 4.7 4.7 0 0 0 .13-1.009l.209-1.464c1.534-5.745 4.378-28.512-6.311-30.981zm-15.192 7.686l-.5-.147c.25.06.496.124.746.193z" class="G"/><path d="M54.667 56.928l.015.009v1.06s-4.944 5.813-9.674 5.616-9.66-6.006-9.66-6.006l-.008-.685c3.35 2.458 7.149 4.526 9.668 4.526s6.311-2.064 9.659-4.519z" fill="#000" fill-opacity=".2"/><path d="M58.5 8.25c-.5-1.5-.5-2.5-1.5-3 .5.75.75 2 1 4" class="G"/></g><g transform="matrix(.939693 .34202 -.34202 .939693 58.979271 5.8641)"><path d="M0 3C.5 1.5.5.5 1.5 0 1 .75.75 2 .5 4" class="B G"/></g><g class="B"><path d="M39.848 55c-7-1.75-8-3-10.5-4.75-2.25-2-3.75-3.5-4.75-4.25l2.75-2.5c.25 1.25 2.25 3.5 4.75 5 3.25 2 4.25 2.5 7.25 3.25z" fill="#444"/><g fill="#4f4f4f"><rect height="5.75" rx="3" width="9" x="38.598" y="49.75"/><path d="M21.099 30c-2.75.5-3.5 1.25-4.5 3-.75 1.5-.75 2.5-.25 4.5l2.5 6.5c1.25 2.25 2 2.75 4.25 3 2.5 0 4-.25 4.5-2.25.25-.75-.25-1.75-.5-2.75l-4-11c-.25-.75-1.25-1-2-1z"/></g><path d="M67.5 21C65.941 10.241 56.997 2 45.023 2S23.559 10.241 22 21v9.25L19 31V21C20.573 9.13 31.859 0 45.023 0S68.927 9.13 70.5 21v10.75c-.273 1-.546 1-1.364 1-1.091 0-1.636-.5-1.636-1.25z" fill="#444"/><path d="M42.875 83.275h4l2 16.6h-4-4z" fill="#4f4f4f"/><path d="M40.875 100h8l5.875-22L45 72.875 34.75 78z" class="H"/></g><path d="M45 72.875q-8.912 0-9.662-7.5l-5.25 4Q29.5 70.5 35.75 81.25 40.662 75 45 72.875z" fill="#000" class="B F"/><path d="M45 72.875q-7.125-3.625-9.625-9.125l-5.75 2.375q2.5 5.25 6.463 14.25 3.412-5.25 8.912-7.5z" class="B H"/><path d="M32.25 65c-2.286 1.301-3.228 2.082-4.306 2.863-1.078 2.863-1.616 5.726-2.694 12.493 3.772 0 5.119.26 7.813.521-1.347 1.562-2.155 2.082-4.58 4.164 1.078 5.726 4.881 12.357 6.767 14.96h5.5l-8.5-35z" fill="#000" class="B F"/><path d="M32.254 65l-5.004 2.125c-1.078 2.863-.922 5.943-2 12.71 3.772 0 4.58 0 7.543.781-1.347 1.562-1.886 2.342-4.31 4.424 1.886 4.945 3.351 7.412 7.392 14.96h5l-8.621-35z" fill="#404040" class="B"/><path d="M45 72.875q8.912 0 9.662-7.5l5.25 4Q60.5 70.5 54.25 81.25 49.338 75 45 72.875z" fill="#000" class="B F"/><path d="M45 72.875q7.125-3.625 9.625-9.125l5.75 2.375q-2.5 5.25-6.463 14.25-3.412-5.25-8.912-7.5z" class="B H"/><path d="M57.75 65c2.286 1.301 3.228 2.082 4.306 2.863 1.078 2.863 1.616 5.726 2.694 12.493-3.772 0-5.118.26-7.812.52 1.347 1.562 2.155 2.082 4.58 4.164-1.078 5.726-4.881 12.357-6.767 14.96h-5.5l8.5-35z" fill="#000" class="B F"/><path d="M57.746 65l5.004 2.125c1.078 2.863.922 5.943 2 12.71-3.772 0-4.58 0-7.543.781 1.347 1.561 1.886 2.342 4.31 4.424-1.886 4.945-3.351 7.412-7.392 14.96h-5l8.621-35z" fill="#404040" class="B"/></symbol></svg>